HIERARCHY
ROOT Hips
{
 OFFSET 0.000000 0.000000 0.000000
 CHANNELS 6 Xposition Yposition Zposition Yrotation Xrotation Zrotation
 JOINT Chest
 {
  OFFSET 0.000000 9.588913 -0.003946
  CHANNELS 3 Yrotation Xrotation Zrotation
  JOINT Chest2
  {
   OFFSET 0.000000 9.541882 0.008053
   CHANNELS 3 Yrotation Xrotation Zrotation
   JOINT Chest3
   {
    OFFSET 0.000000 9.501360 0.000000
    CHANNELS 3 Yrotation Xrotation Zrotation
    JOINT Chest4
    {
     OFFSET 0.000000 9.491660 0.000000
     CHANNELS 3 Yrotation Xrotation Zrotation
     JOINT Neck
     {
      OFFSET 0.000000 14.331917 0.000000
      CHANNELS 3 Yrotation Xrotation Zrotation
      JOINT Head
      {
       OFFSET 0.000000 8.884799 0.017034
       CHANNELS 3 Yrotation Xrotation Zrotation
       End Site
       {
        OFFSET 0.000000 16.896195 0.008993
       }
      }
     }
     JOINT RightCollar
     {
      OFFSET -2.923010 9.499495 0.000000
      CHANNELS 3 Yrotation Xrotation Zrotation
      JOINT RightShoulder
      {
       OFFSET -13.795216 0.000000 0.000000
       CHANNELS 3 Yrotation Xrotation Zrotation
       JOINT RightElbow
       {
        OFFSET -30.272209 0.000000 0.000000
        CHANNELS 3 Yrotation Xrotation Zrotation
        JOINT RightWrist
        {
         OFFSET -24.478199 0.000000 0.000000
         CHANNELS 3 Yrotation Xrotation Zrotation
         End Site
         {
          OFFSET -18.090752 0.000000 0.000000
         }
        }
       }
      }
     }
     JOINT LeftCollar
     {
      OFFSET 2.923010 9.499495 0.000000
      CHANNELS 3 Yrotation Xrotation Zrotation
      JOINT LeftShoulder
      {
       OFFSET 13.795216 0.000000 0.000000
       CHANNELS 3 Yrotation Xrotation Zrotation
       JOINT LeftElbow
       {
        OFFSET 30.272209 0.000000 0.000000
        CHANNELS 3 Yrotation Xrotation Zrotation
        JOINT LeftWrist
        {
         OFFSET 24.478199 0.000000 0.000000
         CHANNELS 3 Yrotation Xrotation Zrotation
         End Site
         {
          OFFSET 18.090752 0.000000 0.000000
         }
        }
       }
      }
     }
    }
   }
  }
 }
 JOINT RightHip
 {
  OFFSET -7.826875 0.019532 0.001973
  CHANNELS 3 Yrotation Xrotation Zrotation
  JOINT RightKnee
  {
   OFFSET 0.000000 -40.546152 -0.001885
   CHANNELS 3 Yrotation Xrotation Zrotation
   JOINT RightAnkle
   {
    OFFSET 0.000000 -39.417092 -0.003189
    CHANNELS 3 Yrotation Xrotation Zrotation
    JOINT RightToe
    {
     OFFSET 0.000000 -7.579396 17.243563
     CHANNELS 3 Yrotation Xrotation Zrotation
     End Site
     {
      OFFSET 0.000000 -1.500329 6.694466
     }
    }
   }
  }
 }
 JOINT LeftHip
 {
  OFFSET 7.826875 0.019532 0.001973
  CHANNELS 3 Yrotation Xrotation Zrotation
  JOINT LeftKnee
  {
   OFFSET 0.000000 -40.546152 -0.001885
   CHANNELS 3 Yrotation Xrotation Zrotation
   JOINT LeftAnkle
   {
    OFFSET 0.000000 -39.417092 -0.003189
    CHANNELS 3 Yrotation Xrotation Zrotation
    JOINT LeftToe
    {
     OFFSET 0.000000 -7.579396 17.243563
     CHANNELS 3 Yrotation Xrotation Zrotation
     End Site
     {
      OFFSET 0.000000 -1.500329 6.694466
     }
    }
   }
  }
 }
}
MOTION
Frames: 17
Frame Time: 0.008333
0.000000 87.345680 0.000000 0.000000 -5.767889 0.000000 0.000000 11.653876 0.000000 0.000000 -5.885988 0.000000 0.000000 -0.000000 0.000000 0.000000 -0.000000 0.000000 0.000000 12.528808 0.000000 0.000000 0.711711 0.000000 0.000000 -0.000000 0.000000 0.000000 -0.000000 0.000000 2.309063 -0.000000 0.000000 -2.309063 -0.000000 -0.000000 0.000000 -0.000000 0.000000 0.000000 0.000000 0.000000 -2.309063 0.000000 0.000000 2.309063 -0.000000 0.000000 0.000000 8.520374 0.000000 0.000000 1.905768 0.000000 -0.000000 -4.658254 0.000000 0.000000 -0.000000 0.000000 0.000000 8.520374 0.000000 0.000000 1.905768 0.000000 -0.000000 -4.658254 0.000000 0.000000 -0.000000 0.000000
13.402180 89.181647 -3.519201 54.027627 -2.682037 0.844783 -2.650746 2.067418 0.675805 -1.511071 1.179772 0.366447 -1.887757 1.476191 0.453210 -1.511071 1.179772 0.366447 -3.108537 21.896697 -0.468780 -3.232826 -2.301404 0.206920 0.226587 -0.894597 -0.573953 -4.346278 -1.135940 87.857299 -3.368400 -0.920869 -2.016648 -4.162028 -2.765353 -1.517834 -3.746918 -0.452469 -2.311576 4.056324 2.941364 -88.766992 -0.087194 3.271902 0.121827 0.690311 0.605757 -1.628808 -3.820145 4.303942 1.096389 -1.774012 2.512474 -1.182023 -5.532452 -4.956441 -0.485377 -0.001469 0.061631 -0.002144 -8.353711 6.162341 -3.984099 4.643342 0.318020 0.335045 1.777770 -3.580745 1.184277 -0.005679 -0.070487 -0.015766
13.406345 89.181065 -3.506854 54.033552 -2.676756 0.845553 -2.651793 2.064305 0.671893 -1.511750 1.177231 0.364320 -1.888616 1.473007 0.450560 -1.511750 1.177231 0.364320 -3.094965 21.896794 -0.472755 -3.217219 -2.301852 0.199553 0.223616 -0.900037 -0.568759 -4.359111 -1.116468 87.869068 -3.362030 -0.903925 -2.013795 -4.162062 -2.766901 -1.516082 -3.735951 -0.454234 -2.314150 4.062757 2.941577 -88.768301 -0.072258 3.270041 0.136136 0.696774 0.605268 -1.629221 -3.823016 4.311486 1.102435 -1.783638 2.504243 -1.183094 -5.531311 -4.960572 -0.487535 -0.001345 0.063028 -0.003596 -8.361097 6.163750 -3.980219 4.641873 0.318667 0.334186 1.781922 -3.586307 1.182775 -0.005343 -0.070142 -0.015334
13.411357 89.180400 -3.492332 54.035445 -2.672873 0.846064 -2.650973 2.060558 0.668110 -1.511200 1.174825 0.362228 -1.887937 1.469991 0.447956 -1.511200 1.174825 0.362228 -3.082259 21.897687 -0.476035 -3.202722 -2.301323 0.193129 0.217228 -0.904047 -0.565554 -4.370260 -1.100219 87.880900 -3.356935 -0.879277 -2.009748 -4.159713 -2.768026 -1.518124 -3.729147 -0.455073 -2.318321 4.069968 2.942425 -88.768115 -0.057340 3.265341 0.149593 0.701570 0.601142 -1.629041 -3.825388 4.321193 1.109395 -1.794609 2.497074 -1.185215 -5.523326 -4.966118 -0.489874 -0.000670 0.063809 -0.004518 -8.367025 6.166997 -3.975935 4.640638 0.321946 0.334554 1.786966 -3.594981 1.178901 -0.005391 -0.069605 -0.014471
13.416883 89.179650 -3.476315 54.031959 -2.669360 0.846439 -2.648656 2.055717 0.664441 -1.509587 1.172049 0.360274 -1.885928 1.466511 0.445530 -1.509587 1.172049 0.360274 -3.069390 21.899679 -0.479285 -3.188072 -2.299509 0.186698 0.212611 -0.907564 -0.563939 -4.380158 -1.084400 87.893180 -3.353492 -0.848665 -2.007006 -4.158919 -2.767346 -1.522588 -3.722612 -0.455317 -2.324664 4.075474 2.945395 -88.766499 -0.040416 3.256902 0.161775 0.702061 0.595816 -1.630272 -3.825386 4.331333 1.115439 -1.808528 2.491461 -1.187402 -5.501736 -4.972942 -0.492836 0.000206 0.064250 -0.004379 -8.369691 6.172856 -3.972244 4.639994 0.323417 0.337369 1.792874 -3.603932 1.172398 -0.005596 -0.069158 -0.013239
13.422619 89.178808 -3.459724 54.031507 -2.664404 0.847715 -2.647902 2.049936 0.659858 -1.508733 1.168487 0.357919 -1.884872 1.462048 0.442603 -1.508733 1.168487 0.357919 -3.054074 21.903037 -0.482019 -3.170911 -2.296179 0.180262 0.210053 -0.911225 -0.559948 -4.385945 -1.067469 87.901837 -3.352142 -0.817644 -2.003371 -4.158582 -2.763138 -1.526811 -3.714006 -0.455820 -2.328478 4.077372 2.949817 -88.764674 -0.021562 3.246701 0.170833 0.700067 0.588775 -1.630695 -3.827743 4.339129 1.121046 -1.820731 2.488799 -1.188389 -5.486123 -4.981904 -0.498296 0.000048 0.064430 -0.003147 -8.374615 6.178272 -3.969158 4.638861 0.322865 0.341291 1.796574 -3.612083 1.163588 -0.005433 -0.068541 -0.011329
13.428503 89.177887 -3.442750 54.035560 -2.659167 0.849093 -2.648633 2.044658 0.655247 -1.508931 1.164973 0.355195 -1.885130 1.457644 0.439212 -1.508931 1.164973 0.355195 -3.035989 21.906828 -0.484570 -3.150803 -2.292444 0.173389 0.206599 -0.915817 -0.554610 -4.386414 -1.050308 87.906609 -3.349514 -0.787460 -1.997373 -4.157282 -2.759141 -1.529917 -3.703901 -0.458846 -2.328909 4.075612 2.954668 -88.763779 -0.003790 3.236835 0.176898 0.700299 0.580217 -1.628566 -3.830941 4.346713 1.123848 -1.830158 2.487598 -1.185542 -5.471206 -4.992062 -0.505450 0.000308 0.064323 -0.001633 -8.382723 6.182669 -3.965277 4.637382 0.323771 0.344830 1.797792 -3.621497 1.153548 -0.004855 -0.067427 -0.009067
13.434754 89.176920 -3.425284 54.039169 -2.656435 0.850213 -2.649101 2.040812 0.650263 -1.509155 1.162431 0.352437 -1.885421 1.454456 0.435774 -1.509155 1.162431 0.352437 -3.017436 21.910812 -0.487312 -3.130150 -2.288496 0.166204 0.200811 -0.922639 -0.548236 -4.381755 -1.033214 87.909432 -3.343917 -0.757167 -1.990770 -4.157621 -2.755353 -1.532636 -3.692814 -0.464203 -2.328517 4.071900 2.960435 -88.763829 0.011829 3.226022 0.183288 0.703056 0.575808 -1.627789 -3.828308 4.356507 1.127154 -1.838227 2.487249 -1.179888 -5.469190 -5.002320 -0.513299 -0.000173 0.063584 -0.001463 -8.389715 6.189240 -3.961749 4.635956 0.326470 0.348336 1.800842 -3.632999 1.143963 -0.004360 -0.066059 -0.007432
13.440852 89.175907 -3.407575 54.041547 -2.653753 0.850171 -2.648590 2.037143 0.644712 -1.508895 1.160278 0.349904 -1.885106 1.451754 0.432618 -1.508895 1.160278 0.349904 -3.000364 21.915669 -0.489397 -3.111263 -2.283459 0.160062 0.192728 -0.931942 -0.540358 -4.372419 -1.016384 87.911256 -3.339482 -0.727164 -1.983921 -4.158698 -2.751876 -1.535658 -3.683067 -0.471467 -2.327724 4.065353 2.968465 -88.764708 0.028572 3.212157 0.193380 0.706025 0.577159 -1.631640 -3.820809 4.365425 1.133993 -1.846157 2.487832 -1.174158 -5.480234 -5.011802 -0.522107 -0.001734 0.061927 -0.001677 -8.395669 6.196805 -3.958314 4.634273 0.327757 0.352604 1.809368 -3.644762 1.135035 -0.004153 -0.064458 -0.006551
13.446476 89.174867 -3.389746 54.046909 -2.649914 0.848238 -2.647577 2.033254 0.639824 -1.508777 1.158174 0.347395 -1.884968 1.449114 0.429490 -1.508777 1.158174 0.347395 -2.984817 21.920753 -0.489705 -3.094439 -2.278082 0.156176 0.184274 -0.942052 -0.530960 -4.359735 -1.001390 87.912543 -3.339076 -0.697625 -1.977172 -4.157847 -2.750258 -1.540295 -3.679110 -0.480237 -2.324562 4.056525 2.976580 -88.766670 0.049029 3.197885 0.205907 0.709079 0.580741 -1.638220 -3.817130 4.373463 1.139314 -1.854448 2.488521 -1.168272 -5.473903 -5.019481 -0.530576 -0.001611 0.059076 -0.000686 -8.405497 6.203106 -3.953884 4.633195 0.328487 0.357438 1.822713 -3.656023 1.126542 -0.003777 -0.062847 -0.006182
13.452126 89.173865 -3.371904 54.053945 -2.647577 0.846857 -2.646262 2.030213 0.635228 -1.508828 1.156483 0.344570 -1.885043 1.446989 0.425965 -1.508828 1.156483 0.344570 -2.969731 21.925414 -0.488523 -3.078452 -2.273170 0.153996 0.177587 -0.953869 -0.521464 -4.343327 -0.987107 87.913516 -3.341584 -0.668678 -1.969705 -4.156109 -2.748829 -1.547277 -3.679680 -0.489925 -2.320686 4.049893 2.982641 -88.769068 0.072905 3.188655 0.218047 0.712373 0.584565 -1.643557 -3.817924 4.382711 1.142606 -1.862475 2.490021 -1.163604 -5.458676 -5.026019 -0.537847 -0.000656 0.055535 0.000600 -8.418325 6.209511 -3.950139 4.633548 0.331284 0.362167 1.835782 -3.667201 1.118203 -0.002865 -0.061906 -0.006019
13.457736 89.172931 -3.354292 54.053261 -2.646071 0.847443 -2.642579 2.028120 0.629929 -1.507211 1.154997 0.341774 -1.883031 1.445118 0.422481 -1.507211 1.154997 0.341774 -2.954802 21.929618 -0.486640 -3.062790 -2.268781 0.152606 0.170264 -0.969200 -0.514102 -4.321200 -0.971745 87.913809 -3.347237 -0.637836 -1.959472 -4.155627 -2.750933 -1.553749 -3.679610 -0.501517 -2.320620 4.046391 2.987367 -88.770905 0.097267 3.183770 0.231114 0.717466 0.589619 -1.646092 -3.813651 4.389498 1.148817 -1.869837 2.495489 -1.162670 -5.458547 -5.033140 -0.544347 -0.001418 0.052248 0.001112 -8.424114 6.216586 -3.946954 4.635138 0.335419 0.365890 1.844307 -3.678502 1.109622 -0.002065 -0.061642 -0.005622
13.462764 89.172066 -3.336948 54.044788 -2.643250 0.848108 -2.636451 2.026194 0.624367 -1.503755 1.153583 0.339281 -1.878720 1.443338 0.419382 -1.503755 1.153583 0.339281 -2.940304 21.932848 -0.483763 -3.047812 -2.265510 0.152384 0.160916 -0.987696 -0.507858 -4.292568 -0.955804 87.914456 -3.356317 -0.605738 -1.950454 -4.155762 -2.755249 -1.556164 -3.679015 -0.514747 -2.322871 4.044336 2.989298 -88.773554 0.120523 3.178924 0.245458 0.722895 0.594295 -1.647229 -3.803043 4.390827 1.158322 -1.876721 2.506591 -1.164129 -5.467772 -5.041148 -0.550399 -0.003063 0.048963 0.001134 -8.421367 6.223490 -3.942378 4.637805 0.338371 0.368483 1.849542 -3.689067 1.101160 -0.001707 -0.061508 -0.005109
13.467382 89.171284 -3.319816 54.039461 -2.640854 0.848269 -2.631327 2.023726 0.618878 -1.500776 1.152263 0.336718 -1.875004 1.441674 0.416192 -1.500776 1.152263 0.336717 -2.926348 21.936273 -0.480224 -3.033576 -2.261984 0.152996 0.153073 -1.004584 -0.502597 -4.261968 -0.941699 87.918203 -3.367716 -0.575771 -1.945883 -4.155465 -2.755497 -1.555591 -3.678988 -0.526086 -2.324288 4.042547 2.989088 -88.777242 0.140535 3.173388 0.257172 0.726750 0.593319 -1.648594 -3.793563 4.390205 1.167143 -1.884163 2.522474 -1.165229 -5.474682 -5.050854 -0.555420 -0.004108 0.045667 0.000807 -8.421949 6.230804 -3.937737 4.638511 0.339979 0.371273 1.857339 -3.698224 1.093533 -0.001095 -0.061301 -0.005303
13.471936 89.170581 -3.302971 54.037833 -2.640701 0.848844 -2.627333 2.020794 0.613232 -1.498465 1.150904 0.333848 -1.872125 1.439961 0.412618 -1.498465 1.150904 0.333848 -2.912583 21.941260 -0.476482 -3.019613 -2.256612 0.153867 0.147774 -1.016956 -0.499777 -4.233390 -0.929789 87.924614 -3.380468 -0.544173 -1.942624 -4.154954 -2.753602 -1.553434 -3.678132 -0.533851 -2.325123 4.039930 2.988589 -88.779488 0.155477 3.167011 0.264125 0.730906 0.588927 -1.647856 -3.784742 4.391534 1.172894 -1.890886 2.539562 -1.163533 -5.480146 -5.062040 -0.560208 -0.004550 0.043117 0.000008 -8.427774 6.239155 -3.934718 4.636347 0.342397 0.374872 1.869229 -3.707290 1.087006 -0.000171 -0.061100 -0.006401
13.476249 89.169914 -3.286543 54.034552 -2.641588 0.849398 -2.623230 2.017885 0.607556 -1.496017 1.149560 0.330827 -1.869076 1.438267 0.408855 -1.496017 1.149560 0.330827 -2.898281 21.947153 -0.473065 -3.005008 -2.250196 0.154264 0.143068 -1.028992 -0.497590 -4.203511 -0.917044 87.929693 -3.394687 -0.506134 -1.937250 -4.153444 -2.755361 -1.548557 -3.677166 -0.539725 -2.324146 4.038331 2.988475 -88.781152 0.165623 3.159306 0.267602 0.734859 0.586093 -1.646618 -3.774821 4.394166 1.176850 -1.895663 2.555473 -1.158774 -5.485131 -5.072562 -0.565649 -0.004574 0.040888 -0.001269 -8.432145 6.247881 -3.931732 4.635877 0.346017 0.378741 1.877943 -3.717219 1.080181 0.000221 -0.060771 -0.007124
13.480059 89.169224 -3.270488 54.031872 -2.642417 0.848055 -2.619925 2.014913 0.602682 -1.494110 1.148108 0.328366 -1.866702 1.436441 0.405789 -1.494110 1.148108 0.328366 -2.883901 21.953328 -0.471479 -2.989902 -2.243461 0.152676 0.137686 -1.041053 -0.495587 -4.169205 -0.906445 87.932235 -3.413023 -0.463327 -1.928559 -4.150159 -2.760034 -1.543413 -3.676832 -0.543873 -2.321938 4.038547 2.988722 -88.784660 0.172980 3.151831 0.268537 0.735952 0.582904 -1.646466 -3.768580 4.396860 1.182934 -1.899545 2.570398 -1.154517 -5.488230 -5.081314 -0.569983 -0.004823 0.038114 -0.003326 -8.435549 6.255616 -3.926703 4.638397 0.351521 0.382952 1.881900 -3.728776 1.072290 0.000231 -0.059814 -0.007025
